<svg width="552.0874267578125px" height="123.2px" xmlns="http://www.w3.org/2000/svg" viewBox="-26.04371337890626 13.399999999999999 552.0874267578125 123.2" style="background: rgba(0, 0, 0, 0);" preserveAspectRatio="xMidYMid"><defs><linearGradient id="editing-rainbow-gradient" x1="0" x2="1" y1="0.5" y2="0.5" gradientUnits="objectBoundingBox"><stop offset="0.00" stop-color="#0056ff"></stop><stop offset="0.17" stop-color="#00a1ff"></stop><stop offset="0.34" stop-color="#4491ff"></stop><stop offset="0.51" stop-color="#00b3ff"></stop><stop offset="0.68" stop-color="#00b3ff"></stop><stop offset="0.85" stop-color="#00c6ff"></stop><stop offset="1.00" stop-color="#00feff"></stop></linearGradient><filter id="editing-rainbow" x="-100%" y="-100%" width="300%" height="300%"><feMorphology operator="dilate" radius="1,2" in="SourceGraphic" result="dilate"></feMorphology><feColorMatrix in="dilate" result="color" type="matrix" values="0.7 0 0 0 0  0 0.7 0 0 0  0 0 0.7 0 0  0 0 0 1 0"></feColorMatrix><feOffset dy="2" result="offset"></feOffset><feGaussianBlur stdDeviation="3"></feGaussianBlur><feOffset dy="3"></feOffset><feColorMatrix result="blur" type="matrix" values="0.7 0 0 0 0  0 0.7 0 0 0  0 0 0.7 0 0  0 0 0 1 0"></feColorMatrix><feMerge><feMergeNode in="blur"></feMergeNode><feMergeNode in="offset"></feMergeNode><feMergeNode in="SourceGraphic"></feMergeNode></feMerge></filter></defs><g filter="url(#editing-rainbow)"><g transform="translate(54.35498046875, 96.72499656677246)"><path d="M2.75-31.62L2.75-33.22L17.60-33.66L17.60-33.66Q29.18-33.66 29.18-25.28L29.18-25.28L29.18-25.28Q29.18-20.61 25.06-17.73L25.06-17.73L25.06-17.73Q20.93-14.85 15.68-14.85L15.68-14.85L15.68-14.85Q14.91-14.85 14.59-14.91L14.59-14.91L14.85-17.02L15.42-17.02L15.42-17.02Q19.39-17.02 21.34-18.75L21.34-18.75L21.34-18.75Q23.30-20.48 23.30-24.19L23.30-24.19L23.30-24.19Q23.30-27.90 21.73-29.66L21.73-29.66L21.73-29.66Q20.16-31.42 16.70-31.42L16.70-31.42L16.70-31.42Q14.59-31.42 12.74-30.72L12.74-30.72L12.74-30.72Q12.29-26.50 12.29-16.38L12.29-16.38L12.29-16.38Q12.29-6.27 12.86-2.11L12.86-2.11L12.86-2.11Q15.55-1.79 18.50-1.09L18.50-1.09L18.30 0.51L18.30 0.51Q15.17 0 10.75 0L10.75 0L10.75 0Q6.34 0 3.07 0.51L3.07 0.51L2.82-1.15L2.82-1.15Q4.74-1.79 6.85-2.11L6.85-2.11L6.85-2.11Q7.49-6.59 7.49-16.10L7.49-16.10L7.49-16.10Q7.49-25.60 6.91-30.78L6.91-30.78L6.91-30.78Q4.67-31.62 2.75-31.62L2.75-31.62ZM36.16-32.38L36.35-34.05L36.35-34.05Q42.37-33.34 48.51-33.34L48.51-33.34L48.51-33.34Q54.66-33.34 60.61-34.05L60.61-34.05L60.86-32.38L60.86-32.38Q58.94-31.62 56.90-31.23L56.90-31.23L56.90-31.23Q56.19-25.98 56.19-16.64L56.19-16.64L56.19-16.64Q56.19-7.30 56.90-2.05L56.90-2.05L56.90-2.05Q58.18-1.86 61.63-1.09L61.63-1.09L61.38 0.51L61.38 0.51Q58.30 0 53.50 0L53.50 0L53.50 0Q48.70 0 46.14 0.51L46.14 0.51L45.89-1.15L45.89-1.15Q48.06-1.86 50.82-2.18L50.82-2.18L50.82-2.18Q51.20-5.89 51.39-12.48L51.39-12.48L51.39-12.48Q48.38-12.80 45.38-12.80L45.38-12.80L45.38-12.80Q42.37-12.80 40.13-12.48L40.13-12.48L40.13-12.48Q38.85-7.23 38.85-5.18L38.85-5.18L38.85-5.18Q38.85-2.05 41.09-0.77L41.09-0.77L40.83 0.32L40.83 0.32Q39.36 0 35.26 0L35.26 0L35.26 0Q31.17 0 28.80 0.51L28.80 0.51L28.54-1.15L28.54-1.15Q30.08-1.73 32.77-2.18L32.77-2.18L41.09-31.36L41.09-31.36Q38.27-31.81 36.16-32.38L36.16-32.38ZM44.42-30.78L40.64-15.49L40.64-15.49Q43.14-15.10 46.18-15.10L46.18-15.10L46.18-15.10Q49.22-15.10 51.39-15.49L51.39-15.49L51.39-15.49Q51.39-27.33 50.88-30.78L50.88-30.78L50.88-30.78Q48.70-30.91 47.65-30.91L47.65-30.91L47.65-30.91Q46.59-30.91 44.42-30.78L44.42-30.78ZM90.18-0.58L89.86 0.70L89.86 0.70Q85.70 0 78.56 0L78.56 0L78.56 0Q71.42 0 66.62 0.64L66.62 0.64L66.43-0.96L66.43-0.96Q68.22-1.66 70.53-2.11L70.53-2.11L70.53-2.11Q71.17-5.95 71.17-15.17L71.17-15.17L71.17-18.18L71.17-18.18Q71.17-26.11 70.53-31.23L70.53-31.23L70.53-31.23Q68.42-31.55 66.50-32.19L66.50-32.19L66.75-33.86L66.75-33.86Q70.02-33.34 74.43-33.34L74.43-33.34L74.43-33.34Q78.85-33.34 81.98-33.86L81.98-33.86L82.18-32.26L82.18-32.26Q79.30-31.55 76.48-31.23L76.48-31.23L76.48-31.23Q75.97-27.78 75.97-16.99L75.97-16.99L75.97-16.99Q75.97-6.21 76.48-2.62L76.48-2.62L76.48-2.62Q78.02-2.37 80.83-2.37L80.83-2.37L80.83-2.37Q83.65-2.37 85.89-3.46L85.89-3.46L85.89-3.46Q86.78-5.63 86.78-8.58L86.78-8.58L88.38-8.58L88.38-8.58Q88.64-3.65 90.18-0.58L90.18-0.58ZM102.53-31.23L102.53-31.23L102.53-31.23Q102.02-27.78 102.02-17.09L102.02-17.09L102.02-17.09Q102.02-6.40 102.59-2.11L102.59-2.11L102.59-2.11Q105.47-1.79 107.90-1.15L107.90-1.15L107.71 0.45L107.71 0.45Q104.38 0 100.26 0L100.26 0L100.26 0Q96.13 0 92.86 0.51L92.86 0.51L92.61-1.15L92.61-1.15Q94.40-1.73 96.64-2.11L96.64-2.11L96.64-2.11Q97.22-6.72 97.22-15.17L97.22-15.17L97.22-18.18L97.22-18.18Q97.22-26.62 96.58-31.23L96.58-31.23L96.58-31.23Q94.34-31.62 92.54-32.19L92.54-32.19L92.80-33.86L92.80-33.86Q96.06-33.34 100.19-33.34L100.19-33.34L100.19-33.34Q104.32-33.34 107.65-33.79L107.65-33.79L107.84-32.19L107.84-32.19Q105.41-31.55 102.53-31.23ZM127.87-1.15L127.68 0.45L127.68 0.45Q124.35 0 120.22 0L120.22 0L120.22 0Q116.10 0 112.83 0.51L112.83 0.51L112.58-1.15L112.58-1.15Q114.62-1.79 116.42-2.11L116.42-2.11L116.42-2.11Q116.99-7.10 116.99-15.17L116.99-15.17L116.99-18.18L116.99-18.18Q116.99-26.75 116.35-31.36L116.35-31.36L116.35-31.36Q114.62-31.55 112.19-32.38L112.19-32.38L112.38-34.05L112.38-34.05Q116.03-33.34 120.03-33.34L120.03-33.34L120.03-33.34Q124.03-33.34 125.76-33.79L125.76-33.79L125.89-32.70L125.89-32.70Q124.16-32.26 124.16-31.23L124.16-31.23L124.16-31.23Q124.16-30.46 125.66-28L125.66-28L125.66-28Q127.17-25.54 128.58-23.23L128.58-23.23L128.58-23.23Q132.80-16.51 138.56-6.72L138.56-6.72L138.75-6.85L138.75-14.66L138.75-14.66Q138.75-23.23 137.86-27.55L137.86-27.55L137.86-27.55Q136.96-31.87 134.78-32.58L134.78-32.58L134.91-33.66L134.91-33.66Q136.58-33.34 139.90-33.34L139.90-33.34L139.90-33.34Q143.23-33.34 146.75-34.05L146.75-34.05L146.94-32.38L146.94-32.38Q144.32-31.55 142.53-31.36L142.53-31.36L142.53-31.36Q141.89-26.24 141.89-18.18L141.89-18.18L141.89-15.17L141.89-15.17Q141.89-5.44 142.53-1.98L142.53-1.98L142.53-1.98Q145.22-1.54 146.82-0.96L146.82-0.96L146.62 0.70L146.62 0.70Q143.42 0 140.61 0L140.61 0L140.61 0Q137.79 0 136.26 0.26L136.26 0.26L136.26 0.26Q136.26-1.15 134.30-4.48L134.30-4.48L134.30-4.48Q132.35-7.81 130.75-10.37L130.75-10.37L130.75-10.37Q125.57-18.75 120.58-27.39L120.58-27.39L120.32-27.26L120.32-18.69L120.32-18.69Q120.32-5.95 122.24-2.11L122.24-2.11L122.24-2.11Q125.12-1.79 127.87-1.15L127.87-1.15ZM151.68-31.62L151.68-33.22L166.40-33.66L166.40-33.66Q173.70-33.66 177.63-30.21L177.63-30.21L177.63-30.21Q181.57-26.75 181.57-19.87L181.57-19.87L181.57-19.87Q181.57-12.99 177.25-7.04L177.25-7.04L177.25-7.04Q172.93-1.09 166.53 0.77L166.53 0.77L166.53 0.77Q164.86 0.77 162.21 0.16L162.21 0.16L162.21 0.16Q159.55-0.45 157.82-1.15L157.82-1.15L157.82-1.15Q157.12-0.32 156.54 1.22L156.54 1.22L155.20 0.90L155.20 0.90Q156.42-4.80 156.42-15.20L156.42-15.20L156.42-15.20Q156.42-25.60 155.84-30.78L155.84-30.78L155.84-30.78Q153.66-31.62 151.68-31.62L151.68-31.62ZM173.70-26.82L173.70-26.82Q172.54-28.99 170.46-30.21L170.46-30.21L170.46-30.21Q168.38-31.42 165.92-31.42L165.92-31.42L165.92-31.42Q163.46-31.42 161.66-30.72L161.66-30.72L161.66-30.72Q161.22-26.56 161.22-17.44L161.22-17.44L161.22-17.44Q161.22-8.32 161.47-4.80L161.47-4.80L161.47-4.80Q164.67-3.33 168.03-3.33L168.03-3.33L168.03-3.33Q171.39-3.33 173.38-5.06L173.38-5.06L173.38-5.06Q175.81-9.66 175.81-16.38L175.81-16.38L175.81-16.38Q175.81-22.66 173.70-26.82L173.70-26.82ZM186.62-31.94L186.62-33.22L201.34-33.66L201.34-33.66Q207.10-33.66 209.98-31.97L209.98-31.97L209.98-31.97Q212.86-30.27 212.86-25.79L212.86-25.79L212.86-25.79Q212.86-22.72 210.98-20.35L210.98-20.35L210.98-20.35Q209.09-17.98 206.02-16.83L206.02-16.83L213.18-2.18L213.18-2.18Q215.36-1.79 217.28-1.28L217.28-1.28L217.02 0.45L217.02 0.45Q214.34 0 210.98 0L210.98 0L210.98 0Q207.62 0 205.70 0.32L205.70 0.32L205.44-0.70L205.44-0.70Q206.27-1.54 206.27-3.46L206.27-3.46L206.27-3.46Q206.27-7.36 201.79-16L201.79-16L201.79-16Q200.45-16.26 198.66-16.26L198.66-16.26L198.78-18.11L199.42-18.11L199.42-18.11Q206.98-18.11 206.98-25.02L206.98-25.02L206.98-25.02Q206.98-31.42 200.51-31.42L200.51-31.42L200.51-31.42Q198.34-31.42 196.61-30.72L196.61-30.72L196.61-30.72Q196.16-26.50 196.16-16.26L196.16-16.26L196.16-16.26Q196.16-6.02 196.74-2.11L196.74-2.11L196.74-2.11Q199.55-1.79 201.98-1.15L201.98-1.15L201.79 0.45L201.79 0.45Q198.46 0 194.34 0L194.34 0L194.34 0Q190.21 0 186.94 0.51L186.94 0.51L186.69-1.15L186.69-1.15Q188.48-1.73 190.72-2.11L190.72-2.11L190.72-2.11Q191.36-6.91 191.36-17.06L191.36-17.06L191.36-17.06Q191.36-27.20 190.78-31.10L190.78-31.10L190.78-31.10Q188.29-31.94 186.62-31.94L186.62-31.94ZM234.37 0.77L234.37 0.77Q228.03 0.77 224.13-3.23L224.13-3.23L224.13-3.23Q220.22-7.23 220.22-13.95L220.22-13.95L220.22-13.95Q220.22-20.67 224.32-26.56L224.32-26.56L224.32-26.56Q228.42-32.45 235.01-34.11L235.01-34.11L235.01-34.11Q241.60-34.11 245.06-30.37L245.06-30.37L245.06-30.37Q248.51-26.62 248.51-19.71L248.51-19.71L248.51-19.71Q248.51-12.80 244.77-7.23L244.77-7.23L244.77-7.23Q241.02-1.66 234.37 0.77L234.37 0.77ZM233.28-30.21L233.28-30.21L233.28-30.21Q230.40-30.21 228.29-28.61L228.29-28.61L228.29-28.61Q225.66-24.13 225.66-17.34L225.66-17.34L225.66-17.34Q225.66-9.54 230.02-5.38L230.02-5.38L230.02-5.38Q232.32-3.14 235.46-3.14L235.46-3.14L235.46-3.14Q238.59-3.14 240.51-4.80L240.51-4.80L240.51-4.80Q243.07-9.28 243.07-15.74L243.07-15.74L243.07-15.74Q243.07-22.21 240.77-26.21L240.77-26.21L240.77-26.21Q238.46-30.21 233.28-30.21ZM270.53-1.92L270.53-3.58L270.53-3.58Q270.53-7.55 268.54-15.46L268.54-15.46L268.54-15.46Q266.56-23.36 264.13-30.78L264.13-30.78L263.87-30.72L262.27-18.82L262.27-18.82Q261.25-11.46 261.25-5.57L261.25-5.57L261.25-5.57Q261.25-1.98 263.49-0.77L263.49-0.77L263.23 0.32L263.23 0.32Q261.31 0 258.21 0L258.21 0L258.21 0Q255.10 0 251.39 0.51L251.39 0.51L251.14-1.15L251.14-1.15Q253.31-1.86 255.23-2.18L255.23-2.18L261.18-31.36L261.18-31.36Q257.86-31.94 256.26-32.38L256.26-32.38L256.45-34.05L256.45-34.05Q261.06-33.34 264.99-33.34L264.99-33.34L264.99-33.34Q268.93-33.34 271.10-33.79L271.10-33.79L271.23-32.70L271.23-32.70Q269.50-32.26 269.50-31.23L269.50-31.23L269.50-31.23Q269.50-29.82 273.47-14.98L273.47-14.98L274.88-10.18L275.33-10.30L275.33-10.30Q275.33-11.97 281.15-31.17L281.15-31.17L281.15-31.17Q281.15-32.26 279.42-32.70L279.42-32.70L279.55-33.79L279.55-33.79Q281.73-33.34 285.73-33.34L285.73-33.34L285.73-33.34Q289.73-33.34 294.27-34.05L294.27-34.05L294.46-32.38L294.46-32.38Q292.74-31.94 290.05-31.42L290.05-31.42L290.05-31.42Q289.86-29.89 289.86-26.91L289.86-26.91L289.86-26.91Q289.86-23.94 290.69-14.72L290.69-14.72L290.69-14.72Q291.52-5.50 292.22-2.05L292.22-2.05L292.22-2.05Q294.59-1.73 297.09-1.15L297.09-1.15L296.90 0.45L296.90 0.45Q293.57 0 289.50 0L289.50 0L289.50 0Q285.44 0 282.18 0.51L282.18 0.51L281.92-1.15L281.92-1.15Q284.03-1.79 286.46-2.11L286.46-2.11L286.46-2.11Q286.27-17.22 284.42-30.59L284.42-30.59L284.22-30.59L284.22-30.59Q277.63-11.14 277.18-5.38L277.18-5.38L277.18-5.38Q275.84-4.93 274.05-3.74L274.05-3.74L274.05-3.74Q272.26-2.56 271.30-1.41L271.30-1.41L270.53-1.92ZM304.26-32.38L304.45-34.05L304.45-34.05Q310.46-33.34 316.61-33.34L316.61-33.34L316.61-33.34Q322.75-33.34 328.70-34.05L328.70-34.05L328.96-32.38L328.96-32.38Q327.04-31.62 324.99-31.23L324.99-31.23L324.99-31.23Q324.29-25.98 324.29-16.64L324.29-16.64L324.29-16.64Q324.29-7.30 324.99-2.05L324.99-2.05L324.99-2.05Q326.27-1.86 329.73-1.09L329.73-1.09L329.47 0.51L329.47 0.51Q326.40 0 321.60 0L321.60 0L321.60 0Q316.80 0 314.24 0.51L314.24 0.51L313.98-1.15L313.98-1.15Q316.16-1.86 318.91-2.18L318.91-2.18L318.91-2.18Q319.30-5.89 319.49-12.48L319.49-12.48L319.49-12.48Q316.48-12.80 313.47-12.80L313.47-12.80L313.47-12.80Q310.46-12.80 308.22-12.48L308.22-12.48L308.22-12.48Q306.94-7.23 306.94-5.18L306.94-5.18L306.94-5.18Q306.94-2.05 309.18-0.77L309.18-0.77L308.93 0.32L308.93 0.32Q307.46 0 303.36 0L303.36 0L303.36 0Q299.26 0 296.90 0.51L296.90 0.51L296.64-1.15L296.64-1.15Q298.18-1.73 300.86-2.18L300.86-2.18L309.18-31.36L309.18-31.36Q306.37-31.81 304.26-32.38L304.26-32.38ZM312.51-30.78L308.74-15.49L308.74-15.49Q311.23-15.10 314.27-15.10L314.27-15.10L314.27-15.10Q317.31-15.10 319.49-15.49L319.49-15.49L319.49-15.49Q319.49-27.33 318.98-30.78L318.98-30.78L318.98-30.78Q316.80-30.91 315.74-30.91L315.74-30.91L315.74-30.91Q314.69-30.91 312.51-30.78L312.51-30.78ZM342.02-2.94L342.02-2.94L342.02-2.94Q341.57-2.11 340.45-0.83L340.45-0.83L340.45-0.83Q339.33 0.45 338.56 0.96L338.56 0.96L338.56 0.96Q337.79 0.45 336.67-0.83L336.67-0.83L336.67-0.83Q335.55-2.11 335.10-2.94L335.10-2.94L335.10-2.94Q335.49-3.71 336.58-4.70L336.58-4.70L336.58-4.70Q337.66-5.70 338.56-6.14L338.56-6.14L338.56-6.14Q339.39-5.63 340.48-4.64L340.48-4.64L340.48-4.64Q341.57-3.65 342.02-2.94ZM352.83-7.87L352.83-7.87L352.83-18.11L352.83-18.11Q352.83-27.78 352.32-31.23L352.32-31.23L352.32-31.23Q349.44-31.55 347.01-32.19L347.01-32.19L347.20-33.79L347.20-33.79Q350.53-33.34 354.66-33.34L354.66-33.34L354.66-33.34Q358.78-33.34 362.05-33.86L362.05-33.86L362.30-32.19L362.30-32.19Q360.51-31.62 358.27-31.23L358.27-31.23L358.27-31.23Q357.63-26.62 357.63-18.18L357.63-18.18L357.63-15.17L357.63-15.17Q357.63-6.72 358.21-2.11L358.21-2.11L358.21-2.11Q356.67 1.28 353.73 4.29L353.73 4.29L353.73 4.29Q350.78 7.30 347.20 9.34L347.20 9.34L346.11 8.13L346.11 8.13Q349.89 5.25 351.36 1.44L351.36 1.44L351.36 1.44Q352.83-2.37 352.83-7.87ZM371.39-4.86L371.39-4.86Q374.34-3.65 377.22-3.65L377.22-3.65L377.22-3.65Q380.10-3.65 381.82-4.99L381.82-4.99L381.82-4.99Q383.55-6.34 383.55-8.83L383.55-8.83L383.55-8.83Q383.55-11.39 376.32-15.17L376.32-15.17L376.32-15.17Q373.57-16.58 371.30-18.59L371.30-18.59L371.30-18.59Q369.02-20.61 369.02-22.59L369.02-22.59L369.02-22.59Q369.02-25.98 372.61-29.44L372.61-29.44L372.61-29.44Q376.19-32.90 379.97-34.11L379.97-34.11L379.97-34.11Q384.70-34.11 388.54-33.15L388.54-33.15L388.54-32L388.54-32Q385.86-29.31 385.54-24.64L385.54-24.64L383.94-24.64L383.94-24.64Q383.94-26.43 383.62-29.12L383.62-29.12L383.62-29.12Q381.38-30.14 378.82-30.14L378.82-30.14L378.82-30.14Q376.26-30.14 374.56-29.02L374.56-29.02L374.56-29.02Q372.86-27.90 372.86-25.79L372.86-25.79L372.86-25.79Q372.86-24.32 375.14-22.59L375.14-22.59L375.14-22.59Q377.41-20.86 380.10-19.52L380.10-19.52L380.10-19.52Q382.78-18.18 385.06-16.19L385.06-16.19L385.06-16.19Q387.33-14.21 387.33-12.22L387.33-12.22L387.33-12.22Q387.33-8.38 383.94-4.58L383.94-4.58L383.94-4.58Q380.54-0.77 376.45 0.77L376.45 0.77L376.45 0.77Q372.42 0.77 368.90-0.19L368.90-0.19L368.90-0.19Q367.87 0.26 366.78 1.28L366.78 1.28L365.63 0.45L365.63 0.45Q369.22-3.46 369.60-9.22L369.60-9.22L371.20-9.22L371.20-9.22Q371.20-6.98 371.39-4.86L371.39-4.86Z" fill="url(#editing-rainbow-gradient)"></path></g></g><style>text {
  font-size: 64px;
  font-family: Arial Black;
  dominant-baseline: central;
  text-anchor: middle;
}</style></svg>